<!DOCTYPE svg PUBLIC "-//W3C//DTD SVG 1.1//EN" "http://www.w3.org/Graphics/SVG/1.1/DTD/svg11.dtd">
<!-- Uploaded to: SVG Repo, www.svgrepo.com, Transformed by: SVG Repo Mixer Tools -->
<svg fill="#f91515" version="1.1" id="Layer_1" xmlns="http://www.w3.org/2000/svg" xmlns:xlink="http://www.w3.org/1999/xlink" width="800px" height="800px" viewBox="0 0 260 260" xml:space="preserve" stroke="#f91515">
<g id="SVGRepo_bgCarrier" stroke-width="0"/>
<g id="SVGRepo_tracerCarrier" stroke-linecap="round" stroke-linejoin="round"/>
<g id="SVGRepo_iconCarrier"> <path d="M182.9,39.4c-58.6-20.7-122.9,9.9-143.6,68.5c-20.7,58.6,9.9,122.9,68.5,143.6c58.6,20.7,122.9-9.9,143.6-68.5 C272.2,124.4,241.5,60.1,182.9,39.4z M130,68.5l-3.2,11.9c-22.8-6.1-41.5,5.5-41.7,5.7l-6.6-10.4C79.5,75,102.1,61,130,68.5z M114,97c12.3,4.3,19,17.4,15.6,29.8l-46.5-16.5C88.3,98.6,101.7,92.7,114,97z M119.8,220.8c-22.5-7.9-35.5-30.5-32.3-53.2 l90.9,32.2C166.6,219.4,142.3,228.7,119.8,220.8z M214.2,156.7l-46.5-16.5c5.2-11.7,18.6-17.7,30.9-13.3 C210.8,131.3,217.5,144.4,214.2,156.7z M229.4,137.1c-0.1-0.2-7.5-21.1-28.9-30.7l5-11.2c26.4,11.8,35.2,36.9,35.5,37.9L229.4,137.1 z M47.5,23l5.7,1.5L48,27.3c-7.8,4.3-13.5,11.6-15.8,20.2l-1.5,5.7L27.9,48c-4.3-7.8-11.6-13.5-20.2-15.8L2,30.7l5.2-2.8 C15.1,23.7,20.8,16.3,23,7.7L24.5,2l2.8,5.2C31.6,15,38.9,20.7,47.5,23z M98.8,7.3c5.6,0,10.1,4.5,10.1,10.1s-4.5,10.1-10.1,10.1 c-5.6,0-10.1-4.5-10.1-10.1S93.2,7.3,98.8,7.3z M17.4,68c8.5,0,15.4,6.9,15.4,15.4s-6.9,15.4-15.4,15.4S2,91.9,2,83.4 S8.9,68,17.4,68z"/> </g>
</svg>