<!DOCTYPE svg PUBLIC "-//W3C//DTD SVG 1.1//EN" "http://www.w3.org/Graphics/SVG/1.1/DTD/svg11.dtd">
<!-- Uploaded to: SVG Repo, www.svgrepo.com, Transformed by: SVG Repo Mixer Tools -->
<svg version="1.1" id="Uploaded to svgrepo.com" xmlns="http://www.w3.org/2000/svg" xmlns:xlink="http://www.w3.org/1999/xlink" width="800px" height="800px" viewBox="0 0 32 32" xml:space="preserve" fill="" stroke="">
<g id="SVGRepo_bgCarrier" stroke-width="0"/>
<g id="SVGRepo_tracerCarrier" stroke-linecap="round" stroke-linejoin="round"/>
<g id="SVGRepo_iconCarrier"> <style type="text/css"> .sharpcorners_een{fill:#0fe3e6;} </style> <path class="sharpcorners_een" d="M22,29v2H10v-2H22z M16,22c5.523,0,10-4.477,10-10c0-5.523-4.477-10-10-10S6,6.477,6,12 C6,17.523,10.477,22,16,22z M28.557,8.635c-0.899-3.354-3.05-6.157-6.057-7.894l-1,1.732c2.544,1.469,4.365,3.841,5.125,6.679 c0.76,2.838,0.37,5.802-1.1,8.347c-1.469,2.545-3.841,4.365-6.679,5.125c-2.838,0.76-5.803,0.37-8.347-1.1l-1,1.732 c1.712,0.988,3.586,1.537,5.5,1.683V26h-2l-1,2h8l-1-2h-2v-1.062c0.791-0.063,1.582-0.171,2.365-0.381 c3.354-0.899,6.157-3.05,7.894-6.057S29.456,11.989,28.557,8.635z"/> </g>
</svg>